<?xml version="1.0" encoding="utf-8"?>
<!-- Generator: Adobe Illustrator 27.2.0, SVG Export Plug-In . SVG Version: 6.00 Build 0)  -->
<svg version="1.1" id="Capa_1" xmlns="http://www.w3.org/2000/svg" xmlns:xlink="http://www.w3.org/1999/xlink" x="0px" y="0px"
	 viewBox="0 0 500 500" style="enable-background:new 0 0 500 500;" xml:space="preserve">
<style type="text/css">
	.st0{fill:none;stroke:#000000;stroke-width:30.2176;stroke-linecap:round;stroke-linejoin:round;stroke-miterlimit:10;}
</style>
<g>
	<path d="M250,156.5c51.6,0,93.5,42,93.5,93.5s-42,93.5-93.5,93.5s-93.5-42-93.5-93.5S198.4,156.5,250,156.5 M250,135
		c-63.5,0-115,51.5-115,115s51.5,115,115,115s115-51.5,115-115S313.5,135,250,135L250,135z"/>
</g>
<g>
	<line class="st0" x1="250" y1="94" x2="250" y2="42"/>
</g>
<g>
	<line class="st0" x1="454" y1="250" x2="402" y2="250"/>
</g>
<g>
	<line class="st0" x1="250" y1="458" x2="250" y2="406"/>
</g>
<g>
	<line class="st0" x1="98" y1="250" x2="46" y2="250"/>
</g>
<g>
	<line class="st0" x1="139.7" y1="139.7" x2="102.9" y2="102.9"/>
</g>
<g>
	<line class="st0" x1="394.2" y1="105.8" x2="357.5" y2="142.5"/>
</g>
<g>
	<line class="st0" x1="397.1" y1="397.1" x2="360.3" y2="360.3"/>
</g>
<g>
	<line class="st0" x1="142.5" y1="357.5" x2="105.8" y2="394.2"/>
</g>
</svg>
